# xmcd
#
# Track frame offsets:
# 180
# 13568
# 34349
# 51207
# 65473
# 79559
# 95826
# 114697
# 132046
# 149559
# 164933
# 181654
#
# Disc length: 2745 seconds
#
#
# Revision: 0
# Processed by: cddbd v1.5.1PL0 Copyright (c) Steve Scherf et al.
# Submitted via: FreeRIP 2.53 
#
DISCID=a90ab70c
DTITLE=Michael Packer - No Use Running From The Blues
DYEAR=1900
DGENRE=Blues
TTITLE0=Your Problems and Mine
TTITLE1=Took My Gun
TTITLE2=One of These Days
TTITLE3=Take Me to Texas
TTITLE4=Recovered Soul
TTITLE5=I Can't Keep From Crying
TTITLE6=Straight to Her heart
TTITLE7=Dreams
TTITLE8=Downtown
TTITLE9=Roll With the Punches
TTITLE10=Goin' New York
TTITLE11=Life's a One Way Tcket
EXTD=BluesfestRadio.com
EXTT0=
EXTT1=
EXTT2=
EXTT3=
EXTT4=
EXTT5=
EXTT6=
EXTT7=
EXTT8=
EXTT9=
EXTT10=
EXTT11=
PLAYORDER=
